<mxfile host="app.diagrams.net" modified="2021-05-18T14:54:39.542Z" agent="5.0 (Windows NT 10.0; Win64; x64) AppleWebKit/537.36 (KHTML, like Gecko) Chrome/90.0.4430.85 Safari/537.36 Edg/90.0.818.46" etag="es55z_ce-iRzTXDvWDoL" version="14.6.10" type="github">
  <diagram name="Page-1" id="74e2e168-ea6b-b213-b513-2b3c1d86103e">
    <mxGraphModel dx="1422" dy="794" grid="1" gridSize="10" guides="1" tooltips="1" connect="1" arrows="1" fold="1" page="1" pageScale="1" pageWidth="1100" pageHeight="850" background="#ffffff" math="0" shadow="0">
      <root>
        <mxCell id="0" />
        <mxCell id="1" parent="0" />
        <mxCell id="sC4Jd4DD6s7zSVHqPO5d-1" value="Small opp meeting" style="shape=manualInput;whiteSpace=wrap;html=1;" vertex="1" parent="1">
          <mxGeometry x="810" y="120" width="80" height="80" as="geometry" />
        </mxCell>
        <mxCell id="sC4Jd4DD6s7zSVHqPO5d-63" style="edgeStyle=orthogonalEdgeStyle;rounded=0;orthogonalLoop=1;jettySize=auto;html=1;entryX=0.75;entryY=0;entryDx=0;entryDy=0;" edge="1" parent="1" source="sC4Jd4DD6s7zSVHqPO5d-2" target="sC4Jd4DD6s7zSVHqPO5d-10">
          <mxGeometry relative="1" as="geometry" />
        </mxCell>
        <mxCell id="sC4Jd4DD6s7zSVHqPO5d-2" value="Application engineering team" style="shape=manualInput;whiteSpace=wrap;html=1;" vertex="1" parent="1">
          <mxGeometry x="120" y="120" width="80" height="80" as="geometry" />
        </mxCell>
        <mxCell id="sC4Jd4DD6s7zSVHqPO5d-3" value="" style="swimlane;startSize=0;" vertex="1" parent="1">
          <mxGeometry x="460" y="110" width="140" height="50" as="geometry" />
        </mxCell>
        <mxCell id="sC4Jd4DD6s7zSVHqPO5d-4" value="Engineering mgmt&lt;br&gt;approval" style="text;html=1;align=center;verticalAlign=middle;resizable=0;points=[];autosize=1;strokeColor=none;" vertex="1" parent="sC4Jd4DD6s7zSVHqPO5d-3">
          <mxGeometry x="15" y="10" width="110" height="30" as="geometry" />
        </mxCell>
        <mxCell id="sC4Jd4DD6s7zSVHqPO5d-6" value="" style="endArrow=classic;html=1;rounded=0;edgeStyle=orthogonalEdgeStyle;exitX=-0.05;exitY=0.675;exitDx=0;exitDy=0;exitPerimeter=0;entryX=1;entryY=0.5;entryDx=0;entryDy=0;" edge="1" parent="1" source="sC4Jd4DD6s7zSVHqPO5d-1" target="sC4Jd4DD6s7zSVHqPO5d-3">
          <mxGeometry relative="1" as="geometry">
            <mxPoint x="500" y="340" as="sourcePoint" />
            <mxPoint x="600" y="340" as="targetPoint" />
          </mxGeometry>
        </mxCell>
        <mxCell id="sC4Jd4DD6s7zSVHqPO5d-7" value="" style="shape=message;html=1;outlineConnect=0;" vertex="1" parent="sC4Jd4DD6s7zSVHqPO5d-6">
          <mxGeometry width="20" height="14" relative="1" as="geometry">
            <mxPoint x="-10" y="-7" as="offset" />
          </mxGeometry>
        </mxCell>
        <mxCell id="sC4Jd4DD6s7zSVHqPO5d-8" value="" style="endArrow=classic;html=1;rounded=0;edgeStyle=orthogonalEdgeStyle;exitX=-0.015;exitY=0.64;exitDx=0;exitDy=0;exitPerimeter=0;entryX=1;entryY=0.625;entryDx=0;entryDy=0;entryPerimeter=0;" edge="1" parent="1" source="sC4Jd4DD6s7zSVHqPO5d-3" target="sC4Jd4DD6s7zSVHqPO5d-2">
          <mxGeometry relative="1" as="geometry">
            <mxPoint x="816" y="184" as="sourcePoint" />
            <mxPoint x="600" y="145" as="targetPoint" />
          </mxGeometry>
        </mxCell>
        <mxCell id="sC4Jd4DD6s7zSVHqPO5d-9" value="" style="shape=message;html=1;outlineConnect=0;" vertex="1" parent="sC4Jd4DD6s7zSVHqPO5d-8">
          <mxGeometry width="20" height="14" relative="1" as="geometry">
            <mxPoint x="-10" y="-7" as="offset" />
          </mxGeometry>
        </mxCell>
        <mxCell id="sC4Jd4DD6s7zSVHqPO5d-10" value="" style="swimlane;startSize=0;" vertex="1" parent="1">
          <mxGeometry x="55" y="280" width="105" height="60" as="geometry" />
        </mxCell>
        <mxCell id="sC4Jd4DD6s7zSVHqPO5d-11" value="Gather application&lt;br&gt;Details&lt;br&gt;----------------&lt;br&gt;2 Hours" style="text;html=1;align=center;verticalAlign=middle;resizable=0;points=[];autosize=1;strokeColor=none;" vertex="1" parent="sC4Jd4DD6s7zSVHqPO5d-10">
          <mxGeometry x="-5" width="110" height="60" as="geometry" />
        </mxCell>
        <mxCell id="sC4Jd4DD6s7zSVHqPO5d-60" style="edgeStyle=orthogonalEdgeStyle;rounded=0;orthogonalLoop=1;jettySize=auto;html=1;" edge="1" parent="1" source="sC4Jd4DD6s7zSVHqPO5d-12" target="sC4Jd4DD6s7zSVHqPO5d-56">
          <mxGeometry relative="1" as="geometry" />
        </mxCell>
        <mxCell id="sC4Jd4DD6s7zSVHqPO5d-12" value="" style="swimlane;startSize=0;" vertex="1" parent="1">
          <mxGeometry x="210" y="280" width="90" height="60" as="geometry">
            <mxRectangle x="210" y="280" width="50" height="40" as="alternateBounds" />
          </mxGeometry>
        </mxCell>
        <mxCell id="sC4Jd4DD6s7zSVHqPO5d-13" value="Design&lt;br&gt;------------&lt;br&gt;1 Hour" style="text;html=1;align=center;verticalAlign=middle;resizable=0;points=[];autosize=1;strokeColor=none;" vertex="1" parent="sC4Jd4DD6s7zSVHqPO5d-12">
          <mxGeometry x="20" y="5" width="60" height="50" as="geometry" />
        </mxCell>
        <mxCell id="sC4Jd4DD6s7zSVHqPO5d-14" value="" style="swimlane;startSize=0;" vertex="1" parent="1">
          <mxGeometry x="460" y="280" width="100" height="60" as="geometry" />
        </mxCell>
        <mxCell id="sC4Jd4DD6s7zSVHqPO5d-15" value="Drafting&lt;br&gt;--------------&lt;br&gt;1 Hour" style="text;html=1;align=center;verticalAlign=middle;resizable=0;points=[];autosize=1;strokeColor=none;" vertex="1" parent="sC4Jd4DD6s7zSVHqPO5d-14">
          <mxGeometry x="15" y="5" width="70" height="50" as="geometry" />
        </mxCell>
        <mxCell id="sC4Jd4DD6s7zSVHqPO5d-30" style="edgeStyle=orthogonalEdgeStyle;rounded=0;orthogonalLoop=1;jettySize=auto;html=1;exitX=1;exitY=0.5;exitDx=0;exitDy=0;entryX=0.375;entryY=1;entryDx=0;entryDy=0;entryPerimeter=0;" edge="1" parent="1" source="sC4Jd4DD6s7zSVHqPO5d-16" target="sC4Jd4DD6s7zSVHqPO5d-1">
          <mxGeometry relative="1" as="geometry" />
        </mxCell>
        <mxCell id="sC4Jd4DD6s7zSVHqPO5d-16" value="" style="swimlane;startSize=0;" vertex="1" parent="1">
          <mxGeometry x="730" y="280" width="100" height="60" as="geometry" />
        </mxCell>
        <mxCell id="sC4Jd4DD6s7zSVHqPO5d-17" value="Quest&lt;br&gt;------------&lt;br&gt;5 Minutes" style="text;html=1;align=center;verticalAlign=middle;resizable=0;points=[];autosize=1;strokeColor=none;" vertex="1" parent="sC4Jd4DD6s7zSVHqPO5d-16">
          <mxGeometry x="15" y="5" width="70" height="50" as="geometry" />
        </mxCell>
        <mxCell id="sC4Jd4DD6s7zSVHqPO5d-18" value="Outputs: customer req, engineering task request" style="rounded=0;whiteSpace=wrap;html=1;" vertex="1" parent="1">
          <mxGeometry x="630" y="180" width="140" height="40" as="geometry" />
        </mxCell>
        <mxCell id="sC4Jd4DD6s7zSVHqPO5d-19" value="Inputs: application context, prior work, estimated cost of development" style="rounded=0;whiteSpace=wrap;html=1;" vertex="1" parent="1">
          <mxGeometry x="460" y="170" width="150" height="60" as="geometry" />
        </mxCell>
        <mxCell id="sC4Jd4DD6s7zSVHqPO5d-20" value="Is this task approved" style="rounded=0;whiteSpace=wrap;html=1;" vertex="1" parent="1">
          <mxGeometry x="260" y="180" width="140" height="40" as="geometry" />
        </mxCell>
        <mxCell id="sC4Jd4DD6s7zSVHqPO5d-22" value="Outputs: DARF, customer prints" style="rounded=0;whiteSpace=wrap;html=1;fillColor=#fff2cc;strokeColor=#d6b656;" vertex="1" parent="1">
          <mxGeometry x="40" y="350" width="140" height="40" as="geometry" />
        </mxCell>
        <mxCell id="sC4Jd4DD6s7zSVHqPO5d-24" value="Outputs: DVV plan, fit/form/function, Design review, Part Number" style="rounded=0;whiteSpace=wrap;html=1;fillColor=#fff2cc;strokeColor=#d6b656;" vertex="1" parent="1">
          <mxGeometry x="260" y="350" width="140" height="40" as="geometry" />
        </mxCell>
        <mxCell id="sC4Jd4DD6s7zSVHqPO5d-27" value="Outputs: 3D model, Print Review, Approved drawing" style="rounded=0;whiteSpace=wrap;html=1;fillColor=#fff2cc;strokeColor=#d6b656;" vertex="1" parent="1">
          <mxGeometry x="530" y="350" width="140" height="40" as="geometry" />
        </mxCell>
        <mxCell id="sC4Jd4DD6s7zSVHqPO5d-29" value="Output: Quest record" style="rounded=0;whiteSpace=wrap;html=1;fillColor=#fff2cc;strokeColor=#d6b656;" vertex="1" parent="1">
          <mxGeometry x="850" y="320" width="140" height="40" as="geometry" />
        </mxCell>
        <mxCell id="sC4Jd4DD6s7zSVHqPO5d-38" value="" style="endArrow=none;html=1;rounded=0;edgeStyle=orthogonalEdgeStyle;" edge="1" parent="1">
          <mxGeometry width="50" height="50" relative="1" as="geometry">
            <mxPoint x="460" y="440" as="sourcePoint" />
            <mxPoint x="540" y="410" as="targetPoint" />
            <Array as="points">
              <mxPoint x="490" y="440" />
              <mxPoint x="490" y="410" />
            </Array>
          </mxGeometry>
        </mxCell>
        <mxCell id="sC4Jd4DD6s7zSVHqPO5d-39" value="" style="endArrow=none;html=1;rounded=0;edgeStyle=orthogonalEdgeStyle;" edge="1" parent="1">
          <mxGeometry width="50" height="50" relative="1" as="geometry">
            <mxPoint x="540" y="410" as="sourcePoint" />
            <mxPoint x="600" y="440" as="targetPoint" />
            <Array as="points">
              <mxPoint x="540" y="410" />
              <mxPoint x="540" y="440" />
            </Array>
          </mxGeometry>
        </mxCell>
        <mxCell id="sC4Jd4DD6s7zSVHqPO5d-40" value="" style="endArrow=none;html=1;rounded=0;edgeStyle=orthogonalEdgeStyle;" edge="1" parent="1">
          <mxGeometry width="50" height="50" relative="1" as="geometry">
            <mxPoint x="600" y="440" as="sourcePoint" />
            <mxPoint x="680" y="410" as="targetPoint" />
            <Array as="points">
              <mxPoint x="630" y="440" />
              <mxPoint x="630" y="410" />
            </Array>
          </mxGeometry>
        </mxCell>
        <mxCell id="sC4Jd4DD6s7zSVHqPO5d-44" value="198H5M (8 Days) = Design Lead Time" style="text;html=1;strokeColor=#b85450;fillColor=#f8cecc;align=center;verticalAlign=middle;whiteSpace=wrap;rounded=0;fontSize=14;" vertex="1" parent="1">
          <mxGeometry x="865" y="450" width="225" height="40" as="geometry" />
        </mxCell>
        <mxCell id="sC4Jd4DD6s7zSVHqPO5d-45" value="6H5M = Value Added Time" style="text;html=1;strokeColor=#82b366;fillColor=#d5e8d4;align=center;verticalAlign=middle;whiteSpace=wrap;rounded=0;fontSize=14;" vertex="1" parent="1">
          <mxGeometry x="890" y="390" width="180" height="20" as="geometry" />
        </mxCell>
        <mxCell id="sC4Jd4DD6s7zSVHqPO5d-50" value="24h" style="text;html=1;strokeColor=#b85450;fillColor=#f8cecc;align=center;verticalAlign=middle;whiteSpace=wrap;rounded=0;" vertex="1" parent="1">
          <mxGeometry x="432.5" y="450" width="50" height="20" as="geometry" />
        </mxCell>
        <mxCell id="sC4Jd4DD6s7zSVHqPO5d-51" value="48h" style="text;html=1;strokeColor=#b85450;fillColor=#f8cecc;align=center;verticalAlign=middle;whiteSpace=wrap;rounded=0;" vertex="1" parent="1">
          <mxGeometry x="560" y="450" width="50" height="20" as="geometry" />
        </mxCell>
        <mxCell id="sC4Jd4DD6s7zSVHqPO5d-52" value="0 Days" style="text;html=1;strokeColor=#b85450;fillColor=#f8cecc;align=center;verticalAlign=middle;whiteSpace=wrap;rounded=0;" vertex="1" parent="1">
          <mxGeometry x="710" y="450" width="50" height="20" as="geometry" />
        </mxCell>
        <mxCell id="sC4Jd4DD6s7zSVHqPO5d-59" style="edgeStyle=orthogonalEdgeStyle;rounded=0;orthogonalLoop=1;jettySize=auto;html=1;entryX=0;entryY=0.633;entryDx=0;entryDy=0;entryPerimeter=0;" edge="1" parent="1" source="sC4Jd4DD6s7zSVHqPO5d-11" target="sC4Jd4DD6s7zSVHqPO5d-12">
          <mxGeometry relative="1" as="geometry" />
        </mxCell>
        <mxCell id="sC4Jd4DD6s7zSVHqPO5d-55" value="" style="swimlane;startSize=0;" vertex="1" parent="1">
          <mxGeometry x="332.5" y="280" width="100" height="60" as="geometry" />
        </mxCell>
        <mxCell id="sC4Jd4DD6s7zSVHqPO5d-56" value="Design Review&lt;br&gt;------------&lt;br&gt;1 Hour" style="text;html=1;align=center;verticalAlign=middle;resizable=0;points=[];autosize=1;strokeColor=none;" vertex="1" parent="sC4Jd4DD6s7zSVHqPO5d-55">
          <mxGeometry y="5" width="100" height="50" as="geometry" />
        </mxCell>
        <mxCell id="sC4Jd4DD6s7zSVHqPO5d-65" style="edgeStyle=orthogonalEdgeStyle;rounded=0;orthogonalLoop=1;jettySize=auto;html=1;entryX=0;entryY=0.5;entryDx=0;entryDy=0;" edge="1" parent="1" source="sC4Jd4DD6s7zSVHqPO5d-57" target="sC4Jd4DD6s7zSVHqPO5d-16">
          <mxGeometry relative="1" as="geometry" />
        </mxCell>
        <mxCell id="sC4Jd4DD6s7zSVHqPO5d-57" value="" style="swimlane;startSize=0;" vertex="1" parent="1">
          <mxGeometry x="610" y="280" width="100" height="60" as="geometry" />
        </mxCell>
        <mxCell id="sC4Jd4DD6s7zSVHqPO5d-58" value="Draft Review&lt;br&gt;--------------&lt;br&gt;1 Hours" style="text;html=1;align=center;verticalAlign=middle;resizable=0;points=[];autosize=1;strokeColor=none;" vertex="1" parent="sC4Jd4DD6s7zSVHqPO5d-57">
          <mxGeometry x="10" y="5" width="80" height="50" as="geometry" />
        </mxCell>
        <mxCell id="sC4Jd4DD6s7zSVHqPO5d-62" style="edgeStyle=orthogonalEdgeStyle;rounded=0;orthogonalLoop=1;jettySize=auto;html=1;entryX=0;entryY=0.5;entryDx=0;entryDy=0;" edge="1" parent="1" source="sC4Jd4DD6s7zSVHqPO5d-56" target="sC4Jd4DD6s7zSVHqPO5d-14">
          <mxGeometry relative="1" as="geometry" />
        </mxCell>
        <mxCell id="sC4Jd4DD6s7zSVHqPO5d-64" style="edgeStyle=orthogonalEdgeStyle;rounded=0;orthogonalLoop=1;jettySize=auto;html=1;entryX=0;entryY=0.5;entryDx=0;entryDy=0;" edge="1" parent="1" source="sC4Jd4DD6s7zSVHqPO5d-15" target="sC4Jd4DD6s7zSVHqPO5d-57">
          <mxGeometry relative="1" as="geometry" />
        </mxCell>
        <mxCell id="sC4Jd4DD6s7zSVHqPO5d-66" value="" style="endArrow=none;html=1;rounded=0;edgeStyle=orthogonalEdgeStyle;" edge="1" parent="1">
          <mxGeometry width="50" height="50" relative="1" as="geometry">
            <mxPoint x="30" y="440" as="sourcePoint" />
            <mxPoint x="90" y="410" as="targetPoint" />
          </mxGeometry>
        </mxCell>
        <mxCell id="sC4Jd4DD6s7zSVHqPO5d-67" value="" style="endArrow=none;html=1;rounded=0;edgeStyle=orthogonalEdgeStyle;" edge="1" parent="1">
          <mxGeometry width="50" height="50" relative="1" as="geometry">
            <mxPoint x="90" y="410" as="sourcePoint" />
            <mxPoint x="120" y="440" as="targetPoint" />
          </mxGeometry>
        </mxCell>
        <mxCell id="sC4Jd4DD6s7zSVHqPO5d-68" value="" style="endArrow=none;html=1;rounded=0;edgeStyle=orthogonalEdgeStyle;" edge="1" parent="1">
          <mxGeometry width="50" height="50" relative="1" as="geometry">
            <mxPoint x="120" y="440" as="sourcePoint" />
            <mxPoint x="280" y="410" as="targetPoint" />
            <Array as="points">
              <mxPoint x="230" y="440" />
              <mxPoint x="230" y="410" />
            </Array>
          </mxGeometry>
        </mxCell>
        <mxCell id="sC4Jd4DD6s7zSVHqPO5d-72" value="24h" style="text;html=1;strokeColor=#b85450;fillColor=#f8cecc;align=center;verticalAlign=middle;whiteSpace=wrap;rounded=0;" vertex="1" parent="1">
          <mxGeometry x="30" y="450" width="40" height="20" as="geometry" />
        </mxCell>
        <mxCell id="sC4Jd4DD6s7zSVHqPO5d-74" value="48h" style="text;html=1;strokeColor=#b85450;fillColor=#f8cecc;align=center;verticalAlign=middle;whiteSpace=wrap;rounded=0;" vertex="1" parent="1">
          <mxGeometry x="150" y="450" width="40" height="20" as="geometry" />
        </mxCell>
        <mxCell id="sC4Jd4DD6s7zSVHqPO5d-75" value="" style="endArrow=none;html=1;rounded=0;edgeStyle=orthogonalEdgeStyle;" edge="1" parent="1">
          <mxGeometry width="50" height="50" relative="1" as="geometry">
            <mxPoint x="280" y="410" as="sourcePoint" />
            <mxPoint x="340" y="440" as="targetPoint" />
            <Array as="points">
              <mxPoint x="280" y="420" />
              <mxPoint x="280" y="450" />
            </Array>
          </mxGeometry>
        </mxCell>
        <mxCell id="sC4Jd4DD6s7zSVHqPO5d-76" value="48h" style="text;html=1;strokeColor=#b85450;fillColor=#f8cecc;align=center;verticalAlign=middle;whiteSpace=wrap;rounded=0;" vertex="1" parent="1">
          <mxGeometry x="300" y="450" width="40" height="20" as="geometry" />
        </mxCell>
        <mxCell id="sC4Jd4DD6s7zSVHqPO5d-77" value="" style="endArrow=none;html=1;rounded=0;edgeStyle=orthogonalEdgeStyle;" edge="1" parent="1">
          <mxGeometry width="50" height="50" relative="1" as="geometry">
            <mxPoint x="280" y="440" as="sourcePoint" />
            <mxPoint x="370" y="410" as="targetPoint" />
          </mxGeometry>
        </mxCell>
        <mxCell id="sC4Jd4DD6s7zSVHqPO5d-78" value="" style="endArrow=none;html=1;rounded=0;edgeStyle=orthogonalEdgeStyle;" edge="1" parent="1">
          <mxGeometry width="50" height="50" relative="1" as="geometry">
            <mxPoint x="420" y="410" as="sourcePoint" />
            <mxPoint x="480" y="440" as="targetPoint" />
            <Array as="points">
              <mxPoint x="420" y="420" />
              <mxPoint x="420" y="450" />
            </Array>
          </mxGeometry>
        </mxCell>
        <mxCell id="sC4Jd4DD6s7zSVHqPO5d-79" value="" style="endArrow=none;html=1;rounded=0;edgeStyle=orthogonalEdgeStyle;" edge="1" parent="1">
          <mxGeometry width="50" height="50" relative="1" as="geometry">
            <mxPoint x="760" y="440" as="sourcePoint" />
            <mxPoint x="680" y="410" as="targetPoint" />
            <Array as="points">
              <mxPoint x="690" y="440" />
              <mxPoint x="690" y="410" />
            </Array>
          </mxGeometry>
        </mxCell>
        <mxCell id="sC4Jd4DD6s7zSVHqPO5d-80" value="" style="endArrow=none;html=1;rounded=0;edgeStyle=orthogonalEdgeStyle;" edge="1" parent="1">
          <mxGeometry width="50" height="50" relative="1" as="geometry">
            <mxPoint x="730" y="440" as="sourcePoint" />
            <mxPoint x="810" y="410" as="targetPoint" />
            <Array as="points">
              <mxPoint x="760" y="440" />
              <mxPoint x="760" y="410" />
            </Array>
          </mxGeometry>
        </mxCell>
        <mxCell id="sC4Jd4DD6s7zSVHqPO5d-83" value="" style="endArrow=none;html=1;rounded=0;edgeStyle=orthogonalEdgeStyle;" edge="1" parent="1">
          <mxGeometry width="50" height="50" relative="1" as="geometry">
            <mxPoint x="1040" y="440" as="sourcePoint" />
            <mxPoint x="800" y="410" as="targetPoint" />
            <Array as="points">
              <mxPoint x="1040" y="440" />
              <mxPoint x="810" y="440" />
              <mxPoint x="810" y="410" />
            </Array>
          </mxGeometry>
        </mxCell>
        <mxCell id="sC4Jd4DD6s7zSVHqPO5d-84" value="&lt;b&gt;100*(6.083/198.083) = 3% efficiency&lt;/b&gt;" style="rounded=0;whiteSpace=wrap;html=1;fillColor=#f8cecc;strokeColor=#b85450;" vertex="1" parent="1">
          <mxGeometry x="850" y="530" width="210" height="60" as="geometry" />
        </mxCell>
        <mxCell id="sC4Jd4DD6s7zSVHqPO5d-85" value="" style="endArrow=none;html=1;rounded=0;edgeStyle=orthogonalEdgeStyle;" edge="1" parent="1">
          <mxGeometry width="50" height="50" relative="1" as="geometry">
            <mxPoint x="340" y="445" as="sourcePoint" />
            <mxPoint x="420" y="415" as="targetPoint" />
            <Array as="points">
              <mxPoint x="340" y="440" />
              <mxPoint x="370" y="440" />
              <mxPoint x="370" y="410" />
              <mxPoint x="420" y="410" />
            </Array>
          </mxGeometry>
        </mxCell>
        <mxCell id="sC4Jd4DD6s7zSVHqPO5d-86" value="5 Minutes" style="text;html=1;strokeColor=#82b366;fillColor=#d5e8d4;align=center;verticalAlign=middle;whiteSpace=wrap;rounded=0;" vertex="1" parent="1">
          <mxGeometry x="760" y="385" width="55" height="20" as="geometry" />
        </mxCell>
        <mxCell id="sC4Jd4DD6s7zSVHqPO5d-89" value="1 Hour" style="text;html=1;strokeColor=#82b366;fillColor=#d5e8d4;align=center;verticalAlign=middle;whiteSpace=wrap;rounded=0;" vertex="1" parent="1">
          <mxGeometry x="632.5" y="390" width="55" height="20" as="geometry" />
        </mxCell>
        <mxCell id="sC4Jd4DD6s7zSVHqPO5d-90" value="1 Hour" style="text;html=1;strokeColor=#82b366;fillColor=#d5e8d4;align=center;verticalAlign=middle;whiteSpace=wrap;rounded=0;" vertex="1" parent="1">
          <mxGeometry x="490" y="390" width="55" height="20" as="geometry" />
        </mxCell>
        <mxCell id="sC4Jd4DD6s7zSVHqPO5d-91" value="1 Hour" style="text;html=1;strokeColor=#82b366;fillColor=#d5e8d4;align=center;verticalAlign=middle;whiteSpace=wrap;rounded=0;" vertex="1" parent="1">
          <mxGeometry x="370" y="390" width="55" height="20" as="geometry" />
        </mxCell>
        <mxCell id="sC4Jd4DD6s7zSVHqPO5d-92" value="1 Hour" style="text;html=1;strokeColor=#82b366;fillColor=#d5e8d4;align=center;verticalAlign=middle;whiteSpace=wrap;rounded=0;" vertex="1" parent="1">
          <mxGeometry x="227.5" y="390" width="55" height="20" as="geometry" />
        </mxCell>
        <mxCell id="sC4Jd4DD6s7zSVHqPO5d-93" value="2 Hour" style="text;html=1;strokeColor=#82b366;fillColor=#d5e8d4;align=center;verticalAlign=middle;whiteSpace=wrap;rounded=0;" vertex="1" parent="1">
          <mxGeometry x="80" y="390" width="55" height="20" as="geometry" />
        </mxCell>
        <mxCell id="sC4Jd4DD6s7zSVHqPO5d-94" value="" style="shape=singleArrow;whiteSpace=wrap;html=1;fillColor=#f8cecc;strokeColor=#b85450;" vertex="1" parent="1">
          <mxGeometry x="700" y="520" width="140" height="80" as="geometry" />
        </mxCell>
      </root>
    </mxGraphModel>
  </diagram>
</mxfile>
